<?xml version="1.0" encoding="UTF-8" standalone="no"?>
<svg width="263px" height="49px" viewBox="0 0 263 49" version="1.1" xmlns="http://www.w3.org/2000/svg" xmlns:xlink="http://www.w3.org/1999/xlink" xmlns:sketch="http://www.bohemiancoding.com/sketch/ns">
    <!-- Generator: Sketch 3.4.4 (17249) - http://www.bohemiancoding.com/sketch -->
    <title>header</title>
    <desc>Created with Sketch.</desc>
    <defs></defs>
    <g id="Page-1" stroke="none" stroke-width="1" fill="none" fill-rule="evenodd" sketch:type="MSPage">
        <g id="header" sketch:type="MSLayerGroup" transform="translate(-1.000000, -1.000000)">
            <g id="layer1" transform="translate(0.847610, 0.466720)" sketch:type="MSShapeGroup">
                <g id="Your_Icon" fill="#5E0B9E">
                    <path d="M70.2516058,10.2600597 C69.5516299,9.45256168 60.6684301,2.18435791 59.3767219,1.48438197 C58.0842921,0.784406027 56.6850619,0.892649729 56.6850619,0.892649729 C56.6850619,0.892649729 46.2395446,0.623483724 35.0962163,0.623483724 L14.4772343,1.04491254 C12.8622383,1.11202363 12.3946255,1.64746914 11.3172399,2.23847976 C8.71433964,3.66729662 2.52279988,8.69918552 0.476993913,11.7682553 C-0.235249646,12.8369814 0.521734644,13.6524173 0.951822953,14.4065151 C1.38263289,15.1598913 14.4750695,29.6436202 18.3509156,33.5194664 C22.2274834,37.3953125 33.9791413,48.3279264 35.1416787,48.9795535 C36.4507058,49.7156107 36.5300846,49.3569632 37.392426,48.765231 C38.2533243,48.1734988 50.3318782,36.5344143 55.6617981,30.8812066 C60.991718,25.2279988 70.232122,14.3011579 70.7906595,13.3298511 C71.424246,12.2257653 70.9508602,11.0675577 70.2516058,10.2600597 L70.2516058,10.2600597 Z M10.9203463,8.05333143 C10.0031613,8.9705164 8.55125246,11.0682793 8.01364207,12.9524414 C7.47531006,14.8366034 7.63695399,17.1515754 7.63695399,17.1515754 C7.63695399,17.1515754 5.09539187,14.5140372 4.61046008,13.9215833 C4.1255283,13.3291295 4.09233356,12.7684271 4.9063262,11.6802171 C5.39775261,11.0220954 8.28497295,8.29724057 10.4996391,6.85976421 C12.7475,5.40063911 14.5732104,4.50726775 15.4514276,4.14284729 C15.531528,4.11037418 15.5964742,4.08295244 15.6477096,4.06274695 C15.6491528,4.0613037 15.6520393,4.05986045 15.6520393,4.05986045 L15.7588398,4.01800622 C15.7631695,4.01656297 15.7588398,4.01800622 15.7588398,4.01800622 C15.7444073,4.02377922 15.7061612,4.03893333 15.6477096,4.06274695 C15.5654443,4.1197553 13.1956289,5.77877044 10.9203463,8.05333143 L10.9203463,8.05333143 Z M42.5874021,34.4785056 C41.2278612,36.8800725 38.1631212,38.2554892 34.7722068,38.4178547 C31.3798492,38.5802203 27.1807152,34.8645748 27.0493795,34.648809 C26.9173222,34.4330432 26.4995015,34.3262428 26.4995015,34.3262428 L23.8518605,34.3262428 L16.0359436,26.4843474 C16.0359436,26.4843474 19.175011,27.7811069 22.7658154,28.1881033 C26.1033295,28.5669562 29.5981579,27.9708942 32.8295932,27.596371 C36.5481252,27.1648395 40.0061506,27.2802994 41.770523,28.5113911 C43.8228236,29.9445377 43.8812752,32.1952851 42.5874021,34.4785056 L42.5874021,34.4785056 Z M66.6976043,14.3076525 C66.4825601,14.6309404 61.2507812,20.5179545 61.2507812,20.5179545 C61.2507812,20.5179545 61.3142842,19.3597469 61.1526403,18.6590494 C60.9902747,17.9590734 60.8091469,16.9329231 58.9004496,15.6441014 C56.9628874,14.3365175 56.2528087,13.8133396 52.2153186,13.0058416 C48.1771069,12.1983436 41.4825947,12.4523555 38.4864091,12.4675096 C35.4981613,12.4819421 29.4415653,11.7141334 27.6649254,10.5833476 C25.8882854,9.45256168 27.9362562,7.96673647 29.9257755,6.92254556 C31.5285039,6.0818528 35.1481733,5.14590559 40.9623033,4.98426166 C46.777155,4.82261774 50.5462007,6.00680384 53.7220709,7.56912127 C56.8986628,9.12999545 57.7602826,11.5532111 57.7602826,11.5532111 L63.683378,8.16157513 C63.683378,8.16157513 65.3611554,9.49874566 65.8994874,9.98295582 C66.4378194,10.467166 67.7266411,11.6585683 67.7201465,12.2531871 C67.7100437,13.3074807 66.9133701,13.9843647 66.6976043,14.3076525 L66.6976043,14.3076525 Z" id="path6"></path>
                </g>
                <g id="text3861" transform="translate(80.850560, 7.623290)" fill="#000000">
                    <path d="M12.8510099,31.4003182 C18.8757989,31.4003182 23.5595219,27.6173112 24.0198878,22.1929995 L23.0391082,22.1929995 C22.5587264,27.1369293 18.1952579,30.4595704 12.8510099,30.4595704 C5.8254254,30.4595704 1.26179786,25.0152428 1.26179786,16.3483537 C1.26179786,7.92165546 5.74536176,2.65747106 12.8510099,2.65747106 C18.0751625,2.65747106 22.5186946,6.50052583 23.0391082,11.4044238 L24.0198878,11.4044238 C23.5194901,5.98011216 18.5955762,1.71672328 12.8510099,1.71672328 C5.12486854,1.71672328 0.261002347,7.36120997 0.261002347,16.3483537 C0.261002347,25.5356565 5.18491627,31.4003182 12.8510099,31.4003182 L12.8510099,31.4003182 Z M34.0678748,30.3995227 C30.5050428,30.3995227 27.8829585,28.2378044 27.8829585,25.2754497 C27.8829585,22.1729836 30.2448359,20.3515357 34.6483362,20.0112653 L42.274398,19.4308039 L42.274398,23.0736995 C42.274398,27.0968975 38.5914705,30.3995227 34.0678748,30.3995227 L34.0678748,30.3995227 Z M34.0078271,31.3202546 C37.8508818,31.3202546 41.2135548,29.1785522 42.2543821,26.096102 L42.274398,26.096102 L42.274398,31 L43.2551776,31 L43.2551776,16.5485128 C43.2551776,11.9848852 40.3929024,9.14262599 35.7692272,9.14262599 C31.2256155,9.14262599 28.1231494,11.6446148 27.6627835,15.7278605 L28.6035313,15.7278605 C29.1639768,12.1249966 31.7460292,10.0633579 35.7692272,10.0633579 C39.8324569,10.0633579 42.274398,12.5253148 42.274398,16.6085605 L42.274398,18.5501038 L34.4882089,19.1505811 C29.4842313,19.5508993 26.882163,21.6125381 26.882163,25.2754497 C26.882163,28.8182658 29.8245018,31.3202546 34.0078271,31.3202546 L34.0078271,31.3202546 Z M49.1198393,3.69829839 L49.1198393,9.46288055 L45.9172937,9.46288055 L45.9172937,10.3635965 L49.1198393,10.3635965 L49.1198393,26.316277 C49.1198393,29.6789499 50.4008576,31.0200159 53.3031646,31.0200159 C53.3632123,31.0200159 55.0045169,31 55.0245328,31 L55.0245328,30.0792681 C55.0045169,30.0792681 53.3832282,30.099284 53.3632123,30.099284 C51.0813985,30.099284 50.1006189,29.0384408 50.1006189,26.2962611 L50.1006189,10.3635965 L54.6642465,10.3635965 L54.6642465,9.46288055 L50.1006189,9.46288055 L50.1006189,3.69829839 L49.1198393,3.69829839 Z M68.0749063,31.3202546 C73.3791226,31.3202546 77.1020819,26.7966588 77.1020819,20.2114244 C77.1020819,13.6462058 73.3791226,9.14262599 68.0548904,9.14262599 C63.9716447,9.14262599 60.6890354,11.7847261 59.6882399,15.7678923 L59.6482081,15.7678923 L59.6482081,0.856039136 L58.6674285,0.856039136 L58.6674285,31 L59.6482081,31 L59.6482081,24.6149246 L59.6882399,24.6149246 C60.7290673,28.6981703 64.0517084,31.3202546 68.0749063,31.3202546 L68.0749063,31.3202546 Z M67.9748268,10.0633579 C72.7986612,10.0633579 76.1213023,14.2066513 76.1213023,20.2114244 C76.1213023,26.2362134 72.7986612,30.3795068 67.9548109,30.3795068 C63.0909447,30.3795068 59.6482081,26.1761656 59.6482081,20.2514562 C59.6482081,14.3067308 63.1109606,10.0633579 67.9748268,10.0633579 L67.9748268,10.0633579 Z M89.1916917,31.3202546 C94.8361784,31.3202546 98.6792331,27.0368498 98.6792331,20.2314403 C98.6792331,13.4260308 94.8361784,9.14262599 89.1916917,9.14262599 C83.547205,9.14262599 79.7041502,13.4260308 79.7041502,20.2314403 C79.7041502,27.0368498 83.5271891,31.3202546 89.1916917,31.3202546 L89.1916917,31.3202546 Z M89.1916917,30.3795068 C84.1076505,30.3795068 80.7049457,26.4764043 80.7049457,20.2314403 C80.7049457,13.9864763 84.1076505,10.0633579 89.1916917,10.0633579 C94.2757329,10.0633579 97.6984535,13.9864763 97.6984535,20.2314403 C97.6984535,26.4563884 94.2757329,30.3795068 89.1916917,30.3795068 L89.1916917,30.3795068 Z M108.787268,30.3995227 C105.224436,30.3995227 102.602352,28.2378044 102.602352,25.2754497 C102.602352,22.1729836 104.964229,20.3515357 109.367729,20.0112653 L116.993791,19.4308039 L116.993791,23.0736995 C116.993791,27.0968975 113.310864,30.3995227 108.787268,30.3995227 L108.787268,30.3995227 Z M108.72722,31.3202546 C112.570275,31.3202546 115.932948,29.1785522 116.973775,26.096102 L116.993791,26.096102 L116.993791,31 L117.974571,31 L117.974571,16.5485128 C117.974571,11.9848852 115.112295,9.14262599 110.48862,9.14262599 C105.945009,9.14262599 102.842542,11.6446148 102.382177,15.7278605 L103.322924,15.7278605 C103.88337,12.1249966 106.465422,10.0633579 110.48862,10.0633579 C114.55185,10.0633579 116.993791,12.5253148 116.993791,16.6085605 L116.993791,18.5501038 L109.207602,19.1505811 C104.203624,19.5508993 101.601556,21.6125381 101.601556,25.2754497 C101.601556,28.8182658 104.543895,31.3202546 108.72722,31.3202546 L108.72722,31.3202546 Z M122.638278,31 L123.619057,31 L123.619057,17.5893401 C123.619057,13.2258717 125.820807,10.0833738 129.383639,10.0833738 C130.424467,10.0833738 131.225103,10.3435806 131.705485,10.5837715 L131.705485,9.5629601 C131.285151,9.38281691 130.424467,9.14262599 129.543767,9.14262599 C126.581412,9.14262599 124.539789,10.8039465 123.599041,13.9264285 L123.55901,13.9264285 L123.55901,9.46288055 L122.638278,9.46288055 L122.638278,31 Z M141.052915,31.3202546 C145.316304,31.3202546 148.638945,28.3578998 149.539661,24.5548769 L149.579693,24.5548769 L149.579693,31 L150.500425,31 L150.500425,0.856039136 L149.499629,0.856039136 L149.499629,15.7678923 L149.459597,15.7678923 C148.618929,12.1049807 145.316304,9.14262599 141.052915,9.14262599 C135.668635,9.14262599 131.865612,13.6462058 131.865612,20.2314403 C131.865612,26.7966588 135.688651,31.3202546 141.052915,31.3202546 L141.052915,31.3202546 Z M141.092947,10.0633579 C145.996845,10.0633579 149.499629,14.2466831 149.499629,20.2314403 C149.499629,26.2161974 145.996845,30.3795068 141.092947,30.3795068 C136.269113,30.3795068 132.866408,26.2562293 132.866408,20.2114244 C132.866408,14.1866354 136.269113,10.0633579 141.092947,10.0633579 L141.092947,10.0633579 Z M161.769382,23.3539223 C161.989557,28.0376453 166.252946,31.4003182 172.117608,31.4003182 C177.98227,31.4003182 181.94542,28.0376453 181.94542,23.41397 C181.94542,19.6709948 179.443431,17.5693242 173.979088,16.2082423 L170.676462,15.38759 C165.812596,14.1866354 163.570814,12.4252353 163.570814,9.34278509 C163.570814,5.43968259 167.273758,2.63745515 171.797353,2.63745515 C176.56114,2.63745515 180.204036,5.33960304 180.384179,8.94246688 L181.384974,8.94246688 C181.204831,4.85922119 177.161617,1.71672328 171.797353,1.71672328 C166.77336,1.71672328 162.570019,4.91926892 162.570019,9.34278509 C162.570019,12.8655853 164.991944,14.9872718 170.356208,16.3283378 L173.698865,17.169006 C178.802922,18.4500243 180.944624,20.2314403 180.944624,23.4540018 C180.944624,27.4771998 177.361776,30.4795863 172.15764,30.4795863 C166.873439,30.4795863 162.990353,27.5172316 162.770178,23.3539223 L161.769382,23.3539223 Z" id="sadfasf"></path>
                </g>
            </g>
        </g>
    </g>
</svg>