<?xml version="1.0" encoding="UTF-8" standalone="no"?>
<!-- Created with Inkscape (http://www.inkscape.org/) -->

<svg
   xmlns:dc="http://purl.org/dc/elements/1.1/"
   xmlns:cc="http://creativecommons.org/ns#"
   xmlns:rdf="http://www.w3.org/1999/02/22-rdf-syntax-ns#"
   xmlns:svg="http://www.w3.org/2000/svg"
   xmlns="http://www.w3.org/2000/svg"
   xmlns:sodipodi="http://sodipodi.sourceforge.net/DTD/sodipodi-0.dtd"
   xmlns:inkscape="http://www.inkscape.org/namespaces/inkscape"
   width="905.21503"
   height="430.70865"
   id="svg3517"
   version="1.1"
   inkscape:version="0.48.3.1 r9886"
   sodipodi:docname="catboard-3s-4.svg">
  <defs
     id="defs3519" />
  <sodipodi:namedview
     id="base"
     pagecolor="#ffffff"
     bordercolor="#666666"
     borderopacity="1.0"
     inkscape:pageopacity="0.0"
     inkscape:pageshadow="2"
     inkscape:zoom="0.7"
     inkscape:cx="365.83436"
     inkscape:cy="162.04189"
     inkscape:document-units="px"
     inkscape:current-layer="layer1"
     showgrid="false"
     fit-margin-top="0"
     fit-margin-left="0"
     fit-margin-right="0"
     fit-margin-bottom="0"
     inkscape:window-width="1024"
     inkscape:window-height="744"
     inkscape:window-x="0"
     inkscape:window-y="24"
     inkscape:window-maximized="1"
     showguides="true"
     inkscape:guide-bbox="true"
     inkscape:snap-global="false">
    <sodipodi:guide
       orientation="0,1"
       position="-503.79882,369.28835"
       id="guide3661" />
    <sodipodi:guide
       orientation="1,0"
       position="436.13027,488.44728"
       id="guide3716" />
    <sodipodi:guide
       orientation="1,0"
       position="292.6886,421.77721"
       id="guide3718" />
  </sodipodi:namedview>
  <metadata
     id="metadata3522">
    <rdf:RDF>
      <cc:Work
         rdf:about="">
        <dc:format>image/svg+xml</dc:format>
        <dc:type
           rdf:resource="http://purl.org/dc/dcmitype/StillImage" />
        <dc:title></dc:title>
      </cc:Work>
    </rdf:RDF>
  </metadata>
  <g
     inkscape:label="Layer 1"
     inkscape:groupmode="layer"
     id="layer1"
     transform="translate(-153.76757,-52.177929)">
    <rect
       transform="matrix(-0.97590284,0.21820553,0.21820553,0.97590284,0,0)"
       y="292.51523"
       x="-942.61334"
       height="48.522621"
       width="48.522621"
       id="rect6707-4-7-2"
       style="fill:#000000;fill-opacity:1;stroke:none" />
    <rect
       style="fill:#000000;fill-opacity:1;stroke:none"
       id="rect6709-46-4-1"
       width="48.522621"
       height="48.522621"
       x="-875.3147"
       y="278.39917"
       transform="matrix(-0.97590284,0.21820553,0.21820553,0.97590284,0,0)" />
    <rect
       transform="matrix(-0.97590284,0.21820553,0.21820553,0.97590284,0,0)"
       y="264.28296"
       x="-808.01617"
       height="48.522621"
       width="48.522621"
       id="rect6711-9-0-5"
       style="fill:#000000;fill-opacity:1;stroke:none" />
    <rect
       style="fill:#000000;fill-opacity:1;stroke:none"
       id="rect6713-8-9-3"
       width="48.522621"
       height="48.522621"
       x="-740.66931"
       y="278.16675"
       transform="matrix(-0.97590284,0.21820553,0.21820553,0.97590284,0,0)" />
    <rect
       transform="matrix(-0.97590284,0.21820553,0.21820553,0.97590284,0,0)"
       y="292.05051"
       x="-673.32239"
       height="48.522621"
       width="48.522621"
       id="rect6715-5-4-6"
       style="fill:#000000;fill-opacity:1;stroke:none" />
    <rect
       style="fill:#000000;fill-opacity:1;stroke:none"
       id="rect6721-6-8-3"
       width="48.522621"
       height="48.522621"
       x="-942.49713"
       y="359.83804"
       transform="matrix(-0.97590284,0.21820553,0.21820553,0.97590284,0,0)" />
    <rect
       transform="matrix(-0.97590284,0.21820553,0.21820553,0.97590284,0,0)"
       y="345.72183"
       x="-875.19849"
       height="48.522621"
       width="48.522621"
       id="rect6723-0-2-4"
       style="fill:#000000;fill-opacity:1;stroke:none" />
    <rect
       style="fill:#000000;fill-opacity:1;stroke:none"
       id="rect6725-7-4-6"
       width="48.522621"
       height="48.522621"
       x="-807.89996"
       y="331.60574"
       transform="matrix(-0.97590284,0.21820553,0.21820553,0.97590284,0,0)" />
    <rect
       transform="matrix(-0.97590284,0.21820553,0.21820553,0.97590284,0,0)"
       y="345.48953"
       x="-740.5531"
       height="48.522621"
       width="48.522621"
       id="rect6727-2-5-0"
       style="fill:#000000;fill-opacity:1;stroke:none" />
    <rect
       style="fill:#000000;fill-opacity:1;stroke:none"
       id="rect6729-7-5-6"
       width="48.522621"
       height="48.522621"
       x="-673.20618"
       y="359.37332"
       transform="matrix(-0.97590284,0.21820553,0.21820553,0.97590284,0,0)" />
    <rect
       transform="matrix(-0.97590284,0.21820553,0.21820553,0.97590284,0,0)"
       y="427.1608"
       x="-942.38104"
       height="48.522621"
       width="48.522621"
       id="rect6735-6-7-4"
       style="fill:#000000;fill-opacity:1;stroke:none" />
    <rect
       style="fill:#000000;fill-opacity:1;stroke:none"
       id="rect6737-4-1-1"
       width="48.522621"
       height="48.522621"
       x="-875.08228"
       y="413.04459"
       transform="matrix(-0.97590284,0.21820553,0.21820553,0.97590284,0,0)" />
    <rect
       transform="matrix(-0.97590284,0.21820553,0.21820553,0.97590284,0,0)"
       y="398.9285"
       x="-807.78375"
       height="48.522621"
       width="48.522621"
       id="rect6739-7-1-9"
       style="fill:#000000;fill-opacity:1;stroke:none" />
    <rect
       style="fill:#000000;fill-opacity:1;stroke:none"
       id="rect6741-1-5-6"
       width="48.522621"
       height="48.522621"
       x="-740.43689"
       y="412.81229"
       transform="matrix(-0.97590284,0.21820553,0.21820553,0.97590284,0,0)" />
    <rect
       transform="matrix(-0.97590284,0.21820553,0.21820553,0.97590284,0,0)"
       y="426.69608"
       x="-673.08997"
       height="48.522621"
       width="48.522621"
       id="rect6743-3-2-7"
       style="fill:#000000;fill-opacity:1;stroke:none" />
    <rect
       style="fill:#000000;fill-opacity:1;stroke:none"
       id="rect6749-2-7-1"
       width="48.522621"
       height="48.522621"
       x="-942.26483"
       y="494.48352"
       transform="matrix(-0.97590284,0.21820553,0.21820553,0.97590284,0,0)" />
    <rect
       transform="matrix(-0.97590284,0.21820553,0.21820553,0.97590284,0,0)"
       y="480.36731"
       x="-874.96619"
       height="48.522621"
       width="48.522621"
       id="rect6751-1-6-2"
       style="fill:#000000;fill-opacity:1;stroke:none" />
    <rect
       style="fill:#000000;fill-opacity:1;stroke:none"
       id="rect6753-6-1-6"
       width="48.522621"
       height="48.522621"
       x="-807.66754"
       y="466.25122"
       transform="matrix(-0.97590284,0.21820553,0.21820553,0.97590284,0,0)" />
    <rect
       transform="matrix(-0.97590284,0.21820553,0.21820553,0.97590284,0,0)"
       y="480.13501"
       x="-740.32068"
       height="48.522621"
       width="48.522621"
       id="rect6755-38-4-0"
       style="fill:#000000;fill-opacity:1;stroke:none" />
    <rect
       style="fill:#000000;fill-opacity:1;stroke:none"
       id="rect6757-3-2-2"
       width="48.522621"
       height="48.522621"
       x="-672.97375"
       y="494.0188"
       transform="matrix(-0.97590284,0.21820553,0.21820553,0.97590284,0,0)" />
    <rect
       style="fill:#000000;fill-opacity:1;stroke:none"
       id="rect6761-8-2-4"
       width="48.522621"
       height="48.522621"
       x="-814.23792"
       y="446.71228"
       transform="matrix(-0.99821029,0.05980143,0.05980143,0.99821029,0,0)" />
    <rect
       transform="matrix(-0.97590284,0.21820553,0.21820553,0.97590284,0,0)"
       y="564.35107"
       x="-655.9975"
       height="48.522621"
       width="48.522621"
       id="rect6763-60-2-1"
       style="fill:#000000;fill-opacity:1;stroke:none" />
    <rect
       style="fill:#000000;fill-opacity:1;stroke:none"
       id="rect6761-8-2-6-0"
       width="48.522621"
       height="48.522621"
       x="-885.10144"
       y="446.27911"
       transform="matrix(-0.99821029,0.05980143,0.05980143,0.99821029,0,0)" />
    <rect
       transform="matrix(0.97590284,0.21820553,-0.21820553,0.97590284,0,0)"
       y="27.878384"
       x="240.88921"
       height="48.522621"
       width="48.522621"
       id="rect6707-4-7-2-1"
       style="fill:#000000;fill-opacity:1;stroke:none" />
    <rect
       style="fill:#000000;fill-opacity:1;stroke:none"
       id="rect6709-46-4-1-3"
       width="48.522621"
       height="48.522621"
       x="308.1879"
       y="13.7623"
       transform="matrix(0.97590284,0.21820553,-0.21820553,0.97590284,0,0)" />
    <rect
       transform="matrix(0.97590284,0.21820553,-0.21820553,0.97590284,0,0)"
       y="-0.35388854"
       x="375.48639"
       height="48.522621"
       width="48.522621"
       id="rect6711-9-0-5-8"
       style="fill:#000000;fill-opacity:1;stroke:none" />
    <rect
       style="fill:#000000;fill-opacity:1;stroke:none"
       id="rect6713-8-9-3-1"
       width="48.522621"
       height="48.522621"
       x="442.83328"
       y="13.529893"
       transform="matrix(0.97590284,0.21820553,-0.21820553,0.97590284,0,0)" />
    <rect
       transform="matrix(0.97590284,0.21820553,-0.21820553,0.97590284,0,0)"
       y="27.413662"
       x="510.18015"
       height="48.522621"
       width="48.522621"
       id="rect6715-5-4-6-9"
       style="fill:#000000;fill-opacity:1;stroke:none" />
    <rect
       style="fill:#000000;fill-opacity:1;stroke:none"
       id="rect6721-6-8-3-2"
       width="48.522621"
       height="48.522621"
       x="241.00542"
       y="95.201187"
       transform="matrix(0.97590284,0.21820553,-0.21820553,0.97590284,0,0)" />
    <rect
       transform="matrix(0.97590284,0.21820553,-0.21820553,0.97590284,0,0)"
       y="81.084961"
       x="308.30411"
       height="48.522621"
       width="48.522621"
       id="rect6723-0-2-4-7"
       style="fill:#000000;fill-opacity:1;stroke:none" />
    <rect
       style="fill:#000000;fill-opacity:1;stroke:none"
       id="rect6725-7-4-6-9"
       width="48.522621"
       height="48.522621"
       x="375.6026"
       y="66.968872"
       transform="matrix(0.97590284,0.21820553,-0.21820553,0.97590284,0,0)" />
    <rect
       transform="matrix(0.97590284,0.21820553,-0.21820553,0.97590284,0,0)"
       y="80.852661"
       x="442.94949"
       height="48.522621"
       width="48.522621"
       id="rect6727-2-5-0-1"
       style="fill:#000000;fill-opacity:1;stroke:none" />
    <rect
       style="fill:#000000;fill-opacity:1;stroke:none"
       id="rect6729-7-5-6-6"
       width="48.522621"
       height="48.522621"
       x="510.29636"
       y="94.736465"
       transform="matrix(0.97590284,0.21820553,-0.21820553,0.97590284,0,0)" />
    <rect
       transform="matrix(0.97590284,0.21820553,-0.21820553,0.97590284,0,0)"
       y="162.52396"
       x="241.12151"
       height="48.522621"
       width="48.522621"
       id="rect6735-6-7-4-0"
       style="fill:#000000;fill-opacity:1;stroke:none" />
    <rect
       style="fill:#000000;fill-opacity:1;stroke:none"
       id="rect6737-4-1-1-3"
       width="48.522621"
       height="48.522621"
       x="308.42032"
       y="148.40775"
       transform="matrix(0.97590284,0.21820553,-0.21820553,0.97590284,0,0)" />
    <rect
       transform="matrix(0.97590284,0.21820553,-0.21820553,0.97590284,0,0)"
       y="134.29163"
       x="375.71881"
       height="48.522621"
       width="48.522621"
       id="rect6739-7-1-9-6"
       style="fill:#000000;fill-opacity:1;stroke:none" />
    <rect
       style="fill:#000000;fill-opacity:1;stroke:none"
       id="rect6741-1-5-6-8"
       width="48.522621"
       height="48.522621"
       x="443.0657"
       y="148.17545"
       transform="matrix(0.97590284,0.21820553,-0.21820553,0.97590284,0,0)" />
    <rect
       transform="matrix(0.97590284,0.21820553,-0.21820553,0.97590284,0,0)"
       y="162.05923"
       x="510.41257"
       height="48.522621"
       width="48.522621"
       id="rect6743-3-2-7-5"
       style="fill:#000000;fill-opacity:1;stroke:none" />
    <rect
       style="fill:#000000;fill-opacity:1;stroke:none"
       id="rect6749-2-7-1-4"
       width="48.522621"
       height="48.522621"
       x="241.23772"
       y="229.84666"
       transform="matrix(0.97590284,0.21820553,-0.21820553,0.97590284,0,0)" />
    <rect
       transform="matrix(0.97590284,0.21820553,-0.21820553,0.97590284,0,0)"
       y="215.73045"
       x="308.53641"
       height="48.522621"
       width="48.522621"
       id="rect6751-1-6-2-9"
       style="fill:#000000;fill-opacity:1;stroke:none" />
    <rect
       style="fill:#000000;fill-opacity:1;stroke:none"
       id="rect6753-6-1-6-9"
       width="48.522621"
       height="48.522621"
       x="375.83502"
       y="201.61438"
       transform="matrix(0.97590284,0.21820553,-0.21820553,0.97590284,0,0)" />
    <rect
       transform="matrix(0.97590284,0.21820553,-0.21820553,0.97590284,0,0)"
       y="215.49815"
       x="443.18192"
       height="48.522621"
       width="48.522621"
       id="rect6755-38-4-0-3"
       style="fill:#000000;fill-opacity:1;stroke:none" />
    <rect
       style="fill:#000000;fill-opacity:1;stroke:none"
       id="rect6757-3-2-2-0"
       width="48.522621"
       height="48.522621"
       x="510.52878"
       y="229.38194"
       transform="matrix(0.97590284,0.21820553,-0.21820553,0.97590284,0,0)" />
    <rect
       style="fill:#000000;fill-opacity:1;stroke:none"
       id="rect6761-8-2-4-0"
       width="48.522621"
       height="48.522621"
       x="396.31952"
       y="374.17627"
       transform="matrix(0.99821029,0.05980143,-0.05980143,0.99821029,0,0)" />
    <rect
       transform="matrix(0.97590284,0.21820553,-0.21820553,0.97590284,0,0)"
       y="299.71436"
       x="527.505"
       height="48.522621"
       width="48.522621"
       id="rect6763-60-2-1-7"
       style="fill:#000000;fill-opacity:1;stroke:none" />
    <rect
       style="fill:#000000;fill-opacity:1;stroke:none"
       id="rect6761-8-2-6-0-0"
       width="48.522621"
       height="48.522621"
       x="325.45599"
       y="373.7431"
       transform="matrix(0.99821029,0.05980143,-0.05980143,0.99821029,0,0)" />
    <path
       style="fill:none;stroke:#000000;stroke-width:1px;stroke-linecap:butt;stroke-linejoin:miter;stroke-opacity:1"
       d="m 606.60044,482.36678 c -314.052,0 -558.892202,-7.2958 -405.1617,-414.258486 178.2244,-35.770507 235.4426,-4.11681 405.061,41.582086"
       id="path6432-6-2-4-1"
       inkscape:connector-curvature="0"
       sodipodi:nodetypes="ccc" />
    <path
       style="fill:none;stroke:#000000;stroke-width:1px;stroke-linecap:butt;stroke-linejoin:miter;stroke-opacity:1"
       d="m 606.14974,482.38657 c 314.052,0 558.89216,-7.2958 405.16166,-414.258476 C 833.08704,32.357587 775.86884,64.011284 606.25044,109.71018"
       id="path6432-6-2-4-9-2"
       inkscape:connector-curvature="0"
       sodipodi:nodetypes="ccc" />
  </g>
</svg>
