<?xml version="1.0" encoding="UTF-8" standalone="no"?>
<!-- Created with Inkscape (http://www.inkscape.org/) -->

<svg
   xmlns:dc="http://purl.org/dc/elements/1.1/"
   xmlns:cc="http://creativecommons.org/ns#"
   xmlns:rdf="http://www.w3.org/1999/02/22-rdf-syntax-ns#"
   xmlns:svg="http://www.w3.org/2000/svg"
   xmlns="http://www.w3.org/2000/svg"
   xmlns:sodipodi="http://sodipodi.sourceforge.net/DTD/sodipodi-0.dtd"
   xmlns:inkscape="http://www.inkscape.org/namespaces/inkscape"
   width="984.34766"
   height="416.30496"
   id="svg3617"
   version="1.1"
   inkscape:version="0.48.3.1 r9886"
   sodipodi:docname="catboard-3s-5.svg">
  <defs
     id="defs3619" />
  <sodipodi:namedview
     id="base"
     pagecolor="#ffffff"
     bordercolor="#666666"
     borderopacity="1.0"
     inkscape:pageopacity="0.0"
     inkscape:pageshadow="2"
     inkscape:zoom="0.5"
     inkscape:cx="945.44624"
     inkscape:cy="444.7966"
     inkscape:document-units="px"
     inkscape:current-layer="layer1"
     showgrid="false"
     fit-margin-top="0"
     fit-margin-left="0"
     fit-margin-right="0"
     fit-margin-bottom="0"
     inkscape:window-width="1024"
     inkscape:window-height="744"
     inkscape:window-x="0"
     inkscape:window-y="24"
     inkscape:window-maximized="1" />
  <metadata
     id="metadata3622">
    <rdf:RDF>
      <cc:Work
         rdf:about="">
        <dc:format>image/svg+xml</dc:format>
        <dc:type
           rdf:resource="http://purl.org/dc/dcmitype/StillImage" />
        <dc:title></dc:title>
      </cc:Work>
    </rdf:RDF>
  </metadata>
  <g
     inkscape:label="Layer 1"
     inkscape:groupmode="layer"
     id="layer1"
     transform="translate(-115.38378,15.756757)">
    <rect
       style="fill:#000000;fill-opacity:1;stroke:none"
       id="rect5184-2-9-1-3-0-2-2"
       width="48.521595"
       height="48.521595"
       x="169.6716"
       y="-29.818874"
       transform="matrix(0.97590284,0.21820553,-0.21820553,0.97590284,0,0)" />
    <rect
       transform="matrix(0.97590284,0.21820553,-0.21820553,0.97590284,0,0)"
       y="-49.115623"
       x="506.16208"
       height="48.521595"
       width="48.521595"
       id="rect6715-5-4-6-9-2-8"
       style="fill:#000000;fill-opacity:1;stroke:none" />
    <rect
       transform="matrix(0.97590284,0.21820553,-0.21820553,0.97590284,0,0)"
       y="-48.651077"
       x="236.87633"
       height="48.521595"
       width="48.521595"
       id="rect6707-4-7-2-6-9"
       style="fill:#000000;fill-opacity:1;stroke:none" />
    <rect
       style="fill:#000000;fill-opacity:1;stroke:none"
       id="rect6709-46-4-1-9-1"
       width="48.521595"
       height="48.521595"
       x="304.17349"
       y="-62.76704"
       transform="matrix(0.97590284,0.21820553,-0.21820553,0.97590284,0,0)" />
    <rect
       transform="matrix(0.97590284,0.21820553,-0.21820553,0.97590284,0,0)"
       y="-76.883003"
       x="371.47073"
       height="48.521595"
       width="48.521595"
       id="rect6711-9-0-5-87-6"
       style="fill:#000000;fill-opacity:1;stroke:none" />
    <rect
       style="fill:#000000;fill-opacity:1;stroke:none"
       id="rect6713-8-9-3-5-3"
       width="48.521595"
       height="48.521595"
       x="438.81647"
       y="-62.999298"
       transform="matrix(0.97590284,0.21820553,-0.21820553,0.97590284,0,0)" />
    <rect
       transform="matrix(0.97590284,0.21820553,-0.21820553,0.97590284,0,0)"
       y="37.502613"
       x="169.78714"
       height="48.521595"
       width="48.521595"
       id="rect6719-6-8-3-9-2"
       style="fill:#000000;fill-opacity:1;stroke:none" />
    <rect
       style="fill:#000000;fill-opacity:1;stroke:none"
       id="rect6721-6-8-3-1-4"
       width="48.521595"
       height="48.521595"
       x="236.99275"
       y="18.670422"
       transform="matrix(0.97590284,0.21820553,-0.21820553,0.97590284,0,0)" />
    <rect
       transform="matrix(0.97590284,0.21820553,-0.21820553,0.97590284,0,0)"
       y="4.5544605"
       x="304.28983"
       height="48.521595"
       width="48.521595"
       id="rect6723-0-2-4-4-4"
       style="fill:#000000;fill-opacity:1;stroke:none" />
    <rect
       style="fill:#000000;fill-opacity:1;stroke:none"
       id="rect6725-7-4-6-8-2"
       width="48.521595"
       height="48.521595"
       x="371.58691"
       y="-9.5615034"
       transform="matrix(0.97590284,0.21820553,-0.21820553,0.97590284,0,0)" />
    <rect
       transform="matrix(0.97590284,0.21820553,-0.21820553,0.97590284,0,0)"
       y="4.3221831"
       x="438.93283"
       height="48.521595"
       width="48.521595"
       id="rect6727-2-5-0-4-1"
       style="fill:#000000;fill-opacity:1;stroke:none" />
    <rect
       style="fill:#000000;fill-opacity:1;stroke:none"
       id="rect6729-7-5-6-2-2"
       width="48.521595"
       height="48.521595"
       x="506.27826"
       y="18.205282"
       transform="matrix(0.97590284,0.21820553,-0.21820553,0.97590284,0,0)" />
    <rect
       style="fill:#000000;fill-opacity:1;stroke:none"
       id="rect6733-2-1-6-1-4"
       width="48.521595"
       height="48.521595"
       x="169.90324"
       y="104.82356"
       transform="matrix(0.97590284,0.21820553,-0.21820553,0.97590284,0,0)" />
    <rect
       transform="matrix(0.97590284,0.21820553,-0.21820553,0.97590284,0,0)"
       y="85.991913"
       x="237.10887"
       height="48.521595"
       width="48.521595"
       id="rect6735-6-7-4-8-0"
       style="fill:#000000;fill-opacity:1;stroke:none" />
    <rect
       style="fill:#000000;fill-opacity:1;stroke:none"
       id="rect6737-4-1-1-31-9"
       width="48.521595"
       height="48.521595"
       x="304.40594"
       y="71.875961"
       transform="matrix(0.97590284,0.21820553,-0.21820553,0.97590284,0,0)" />
    <rect
       transform="matrix(0.97590284,0.21820553,-0.21820553,0.97590284,0,0)"
       y="57.760006"
       x="371.70312"
       height="48.521595"
       width="48.521595"
       id="rect6739-7-1-9-9-9"
       style="fill:#000000;fill-opacity:1;stroke:none" />
    <rect
       style="fill:#000000;fill-opacity:1;stroke:none"
       id="rect6741-1-5-6-5-7"
       width="48.521595"
       height="48.521595"
       x="439.04898"
       y="71.643089"
       transform="matrix(0.97590284,0.21820553,-0.21820553,0.97590284,0,0)" />
    <rect
       transform="matrix(0.97590284,0.21820553,-0.21820553,0.97590284,0,0)"
       y="85.526794"
       x="506.39453"
       height="48.521595"
       width="48.521595"
       id="rect6743-3-2-7-4-8"
       style="fill:#000000;fill-opacity:1;stroke:none" />
    <rect
       style="fill:#000000;fill-opacity:1;stroke:none"
       id="rect6749-2-7-1-0-8"
       width="48.521595"
       height="48.521595"
       x="237.22501"
       y="153.31287"
       transform="matrix(0.97590284,0.21820553,-0.21820553,0.97590284,0,0)" />
    <rect
       transform="matrix(0.97590284,0.21820553,-0.21820553,0.97590284,0,0)"
       y="139.19688"
       x="304.52213"
       height="48.521595"
       width="48.521595"
       id="rect6751-1-6-2-92-5"
       style="fill:#000000;fill-opacity:1;stroke:none" />
    <rect
       style="fill:#000000;fill-opacity:1;stroke:none"
       id="rect6753-6-1-6-2-1"
       width="48.521595"
       height="48.521595"
       x="371.81915"
       y="125.08096"
       transform="matrix(0.97590284,0.21820553,-0.21820553,0.97590284,0,0)" />
    <rect
       transform="matrix(0.97590284,0.21820553,-0.21820553,0.97590284,0,0)"
       y="138.96463"
       x="439.16516"
       height="48.521595"
       width="48.521595"
       id="rect6755-38-4-0-8-4"
       style="fill:#000000;fill-opacity:1;stroke:none" />
    <rect
       style="fill:#000000;fill-opacity:1;stroke:none"
       id="rect6757-3-2-2-09-7"
       width="48.521595"
       height="48.521595"
       x="506.51074"
       y="152.84834"
       transform="matrix(0.97590284,0.21820553,-0.21820553,0.97590284,0,0)" />
    <rect
       style="fill:#000000;fill-opacity:1;stroke:none"
       id="rect6761-8-2-4-4-1"
       width="48.521595"
       height="48.521595"
       x="437.64844"
       y="251.47676"
       transform="matrix(0.98824802,0.15285895,-0.15285895,0.98824802,0,0)" />
    <rect
       transform="matrix(0.97590284,0.21820553,-0.21820553,0.97590284,0,0)"
       y="223.1792"
       x="523.48633"
       height="48.521595"
       width="48.521595"
       id="rect6763-60-2-1-9-8"
       style="fill:#000000;fill-opacity:1;stroke:none" />
    <rect
       style="fill:#000000;fill-opacity:1;stroke:none"
       id="rect6761-8-2-6-0-7-1"
       width="48.521595"
       height="48.521595"
       x="340.41782"
       y="294.20108"
       transform="matrix(0.99877911,0.04939921,-0.04939921,0.99877911,0,0)" />
    <path
       style="fill:none;stroke:#000000;stroke-width:0.9999786px;stroke-linecap:butt;stroke-linejoin:miter;stroke-opacity:1"
       d="M 607.65827,400.04823 C 293.61299,400.04823 53.797057,399.41229 130.18211,5.7392582 308.40271,-30.030354 437.94282,-18.317998 607.55759,27.379775"
       id="path6432-6-2-0"
       inkscape:connector-curvature="0"
       sodipodi:nodetypes="ccc" />
    <rect
       transform="matrix(-0.97590284,0.21820553,0.21820553,0.97590284,0,0)"
       y="216.02887"
       x="-679.67255"
       height="48.521595"
       width="48.521595"
       id="rect6715-5-4-6-3"
       style="fill:#000000;fill-opacity:1;stroke:none" />
    <rect
       style="fill:#000000;fill-opacity:1;stroke:none"
       id="rect5184-2-9-1-3-0-2-2-8"
       width="48.521595"
       height="48.521595"
       x="-1016.1628"
       y="235.32495"
       transform="matrix(-0.97590284,0.21820553,0.21820553,0.97590284,0,0)" />
    <rect
       transform="matrix(-0.97590284,0.21820553,0.21820553,0.97590284,0,0)"
       y="216.49278"
       x="-948.95844"
       height="48.521595"
       width="48.521595"
       id="rect6707-4-7-2-6-9-2"
       style="fill:#000000;fill-opacity:1;stroke:none" />
    <rect
       style="fill:#000000;fill-opacity:1;stroke:none"
       id="rect6709-46-4-1-9-1-0"
       width="48.521595"
       height="48.521595"
       x="-881.66101"
       y="202.37683"
       transform="matrix(-0.97590284,0.21820553,0.21820553,0.97590284,0,0)" />
    <rect
       transform="matrix(-0.97590284,0.21820553,0.21820553,0.97590284,0,0)"
       y="188.26086"
       x="-814.36371"
       height="48.521595"
       width="48.521595"
       id="rect6711-9-0-5-87-6-4"
       style="fill:#000000;fill-opacity:1;stroke:none" />
    <rect
       style="fill:#000000;fill-opacity:1;stroke:none"
       id="rect6713-8-9-3-5-3-4"
       width="48.521595"
       height="48.521595"
       x="-747.01794"
       y="202.14461"
       transform="matrix(-0.97590284,0.21820553,0.21820553,0.97590284,0,0)" />
    <rect
       transform="matrix(-0.97590284,0.21820553,0.21820553,0.97590284,0,0)"
       y="302.64658"
       x="-1016.0473"
       height="48.521595"
       width="48.521595"
       id="rect6719-6-8-3-9-2-2"
       style="fill:#000000;fill-opacity:1;stroke:none" />
    <rect
       style="fill:#000000;fill-opacity:1;stroke:none"
       id="rect6721-6-8-3-1-4-1"
       width="48.521595"
       height="48.521595"
       x="-948.84167"
       y="283.81433"
       transform="matrix(-0.97590284,0.21820553,0.21820553,0.97590284,0,0)" />
    <rect
       transform="matrix(-0.97590284,0.21820553,0.21820553,0.97590284,0,0)"
       y="269.69833"
       x="-881.54456"
       height="48.521595"
       width="48.521595"
       id="rect6723-0-2-4-4-4-1"
       style="fill:#000000;fill-opacity:1;stroke:none" />
    <rect
       style="fill:#000000;fill-opacity:1;stroke:none"
       id="rect6725-7-4-6-8-2-6"
       width="48.521595"
       height="48.521595"
       x="-814.2475"
       y="255.58237"
       transform="matrix(-0.97590284,0.21820553,0.21820553,0.97590284,0,0)" />
    <rect
       transform="matrix(-0.97590284,0.21820553,0.21820553,0.97590284,0,0)"
       y="269.46613"
       x="-746.90149"
       height="48.521595"
       width="48.521595"
       id="rect6727-2-5-0-4-1-8"
       style="fill:#000000;fill-opacity:1;stroke:none" />
    <rect
       style="fill:#000000;fill-opacity:1;stroke:none"
       id="rect6729-7-5-6-2-2-7"
       width="48.521595"
       height="48.521595"
       x="-679.55621"
       y="283.34912"
       transform="matrix(-0.97590284,0.21820553,0.21820553,0.97590284,0,0)" />
    <rect
       style="fill:#000000;fill-opacity:1;stroke:none"
       id="rect6733-2-1-6-1-4-3"
       width="48.521595"
       height="48.521595"
       x="-1015.9313"
       y="369.96753"
       transform="matrix(-0.97590284,0.21820553,0.21820553,0.97590284,0,0)" />
    <rect
       transform="matrix(-0.97590284,0.21820553,0.21820553,0.97590284,0,0)"
       y="351.1358"
       x="-948.72552"
       height="48.521595"
       width="48.521595"
       id="rect6735-6-7-4-8-0-1"
       style="fill:#000000;fill-opacity:1;stroke:none" />
    <rect
       style="fill:#000000;fill-opacity:1;stroke:none"
       id="rect6737-4-1-1-31-9-9"
       width="48.521595"
       height="48.521595"
       x="-881.42841"
       y="337.01987"
       transform="matrix(-0.97590284,0.21820553,0.21820553,0.97590284,0,0)" />
    <rect
       transform="matrix(-0.97590284,0.21820553,0.21820553,0.97590284,0,0)"
       y="322.9039"
       x="-814.13135"
       height="48.521595"
       width="48.521595"
       id="rect6739-7-1-9-9-9-0"
       style="fill:#000000;fill-opacity:1;stroke:none" />
    <rect
       style="fill:#000000;fill-opacity:1;stroke:none"
       id="rect6741-1-5-6-5-7-5"
       width="48.521595"
       height="48.521595"
       x="-746.7854"
       y="336.78696"
       transform="matrix(-0.97590284,0.21820553,0.21820553,0.97590284,0,0)" />
    <rect
       transform="matrix(-0.97590284,0.21820553,0.21820553,0.97590284,0,0)"
       y="350.67068"
       x="-679.43982"
       height="48.521595"
       width="48.521595"
       id="rect6743-3-2-7-4-8-8"
       style="fill:#000000;fill-opacity:1;stroke:none" />
    <rect
       style="fill:#000000;fill-opacity:1;stroke:none"
       id="rect6749-2-7-1-0-8-6"
       width="48.521595"
       height="48.521595"
       x="-948.60938"
       y="418.45663"
       transform="matrix(-0.97590284,0.21820553,0.21820553,0.97590284,0,0)" />
    <rect
       transform="matrix(-0.97590284,0.21820553,0.21820553,0.97590284,0,0)"
       y="404.34076"
       x="-881.31244"
       height="48.521595"
       width="48.521595"
       id="rect6751-1-6-2-92-5-9"
       style="fill:#000000;fill-opacity:1;stroke:none" />
    <rect
       style="fill:#000000;fill-opacity:1;stroke:none"
       id="rect6753-6-1-6-2-1-7"
       width="48.521595"
       height="48.521595"
       x="-814.01556"
       y="390.22467"
       transform="matrix(-0.97590284,0.21820553,0.21820553,0.97590284,0,0)" />
    <rect
       transform="matrix(-0.97590284,0.21820553,0.21820553,0.97590284,0,0)"
       y="404.10852"
       x="-746.66931"
       height="48.521595"
       width="48.521595"
       id="rect6755-38-4-0-8-4-2"
       style="fill:#000000;fill-opacity:1;stroke:none" />
    <rect
       style="fill:#000000;fill-opacity:1;stroke:none"
       id="rect6757-3-2-2-09-7-7"
       width="48.521595"
       height="48.521595"
       x="-679.32367"
       y="417.99213"
       transform="matrix(-0.97590284,0.21820553,0.21820553,0.97590284,0,0)" />
    <rect
       style="fill:#000000;fill-opacity:1;stroke:none"
       id="rect6761-8-2-4-4-1-7"
       width="48.521595"
       height="48.521595"
       x="-763.18665"
       y="437.21768"
       transform="matrix(-0.98824802,0.15285895,0.15285895,0.98824802,0,0)" />
    <rect
       transform="matrix(-0.97590284,0.21820553,0.21820553,0.97590284,0,0)"
       y="488.32309"
       x="-662.34808"
       height="48.521595"
       width="48.521595"
       id="rect6763-60-2-1-9-8-9"
       style="fill:#000000;fill-opacity:1;stroke:none" />
    <rect
       style="fill:#000000;fill-opacity:1;stroke:none"
       id="rect6761-8-2-6-0-7-1-6"
       width="48.521595"
       height="48.521595"
       x="-873.21381"
       y="354.22565"
       transform="matrix(-0.99877911,0.04939921,0.04939921,0.99877911,0,0)" />
    <path
       style="fill:none;stroke:#000000;stroke-width:0.9999786px;stroke-linecap:butt;stroke-linejoin:miter;stroke-opacity:1"
       d="m 607.45691,400.04823 c 314.04527,0 553.86129,-0.63594 477.47619,-394.3089718 C 906.71242,-30.030354 777.17235,-18.317998 607.55759,27.379775"
       id="path6432-6-2-0-6"
       inkscape:connector-curvature="0"
       sodipodi:nodetypes="ccc" />
  </g>
</svg>
