<?xml version="1.0" encoding="UTF-8" standalone="no"?>
<!-- Created with Inkscape (http://www.inkscape.org/) -->

<svg
   xmlns:dc="http://purl.org/dc/elements/1.1/"
   xmlns:cc="http://creativecommons.org/ns#"
   xmlns:rdf="http://www.w3.org/1999/02/22-rdf-syntax-ns#"
   xmlns:svg="http://www.w3.org/2000/svg"
   xmlns="http://www.w3.org/2000/svg"
   xmlns:sodipodi="http://sodipodi.sourceforge.net/DTD/sodipodi-0.dtd"
   xmlns:inkscape="http://www.inkscape.org/namespaces/inkscape"
   width="1383.875"
   height="521"
   id="svg4985"
   version="1.1"
   inkscape:version="0.48.3.1 r9886"
   sodipodi:docname="New document 2">
  <defs
     id="defs4987" />
  <sodipodi:namedview
     id="base"
     pagecolor="#ffffff"
     bordercolor="#666666"
     borderopacity="1.0"
     inkscape:pageopacity="0.0"
     inkscape:pageshadow="2"
     inkscape:zoom="0.35"
     inkscape:cx="846.9375"
     inkscape:cy="143.35657"
     inkscape:document-units="px"
     inkscape:current-layer="layer1"
     showgrid="false"
     fit-margin-top="0"
     fit-margin-left="0"
     fit-margin-right="0"
     fit-margin-bottom="0"
     inkscape:window-width="472"
     inkscape:window-height="415"
     inkscape:window-x="0"
     inkscape:window-y="24"
     inkscape:window-maximized="0" />
  <metadata
     id="metadata4990">
    <rdf:RDF>
      <cc:Work
         rdf:about="">
        <dc:format>image/svg+xml</dc:format>
        <dc:type
           rdf:resource="http://purl.org/dc/dcmitype/StillImage" />
        <dc:title></dc:title>
      </cc:Work>
    </rdf:RDF>
  </metadata>
  <g
     inkscape:label="Layer 1"
     inkscape:groupmode="layer"
     id="layer1"
     transform="translate(471.9375,-154.71875)">
    <rect
       transform="matrix(0.98401114,0.17810695,-0.17810695,0.98401114,0,0)"
       y="242.87871"
       x="-317.23083"
       height="48.522621"
       width="48.522621"
       id="rect6707-4-7-2-1-62-6-1-4"
       style="fill:#000000;fill-opacity:1;stroke:none" />
    <rect
       style="fill:#000000;fill-opacity:1;stroke:none"
       id="rect6709-46-4-1-3-4-5-5-5"
       width="48.522621"
       height="48.522621"
       x="-249.93225"
       y="228.76176"
       transform="matrix(0.98401114,0.17810695,-0.17810695,0.98401114,0,0)" />
    <rect
       transform="matrix(0.98401114,0.17810695,-0.17810695,0.98401114,0,0)"
       y="214.64507"
       x="-182.63348"
       height="48.522621"
       width="48.522621"
       id="rect6711-9-0-5-8-8-6-3-5"
       style="fill:#000000;fill-opacity:1;stroke:none" />
    <rect
       style="fill:#000000;fill-opacity:1;stroke:none"
       id="rect6713-8-9-3-1-0-8-3-3"
       width="48.522621"
       height="48.522621"
       x="-115.28657"
       y="228.52934"
       transform="matrix(0.98401114,0.17810695,-0.17810695,0.98401114,0,0)" />
    <rect
       transform="matrix(0.98401114,0.17810695,-0.17810695,0.98401114,0,0)"
       y="242.41386"
       x="-47.939766"
       height="48.522621"
       width="48.522621"
       id="rect6715-5-4-6-9-8-8-4-1"
       style="fill:#000000;fill-opacity:1;stroke:none" />
    <rect
       style="fill:#000000;fill-opacity:1;stroke:none"
       id="rect6721-6-8-3-2-7-96-4-1"
       width="48.522621"
       height="48.522621"
       x="-317.11462"
       y="310.20145"
       transform="matrix(0.98401114,0.17810695,-0.17810695,0.98401114,0,0)" />
    <rect
       transform="matrix(0.98401114,0.17810695,-0.17810695,0.98401114,0,0)"
       y="296.08524"
       x="-249.81604"
       height="48.522621"
       width="48.522621"
       id="rect6723-0-2-4-7-1-82-7-6"
       style="fill:#000000;fill-opacity:1;stroke:none" />
    <rect
       style="fill:#000000;fill-opacity:1;stroke:none"
       id="rect6725-7-4-6-9-4-1-6-3"
       width="48.522621"
       height="48.522621"
       x="-182.51727"
       y="281.96902"
       transform="matrix(0.98401114,0.17810695,-0.17810695,0.98401114,0,0)" />
    <rect
       transform="matrix(0.98401114,0.17810695,-0.17810695,0.98401114,0,0)"
       y="295.85281"
       x="-115.17036"
       height="48.522621"
       width="48.522621"
       id="rect6727-2-5-0-1-2-0-9-6"
       style="fill:#000000;fill-opacity:1;stroke:none" />
    <rect
       style="fill:#000000;fill-opacity:1;stroke:none"
       id="rect6729-7-5-6-6-20-5-9-8"
       width="48.522621"
       height="48.522621"
       x="-47.823799"
       y="309.7366"
       transform="matrix(0.98401114,0.17810695,-0.17810695,0.98401114,0,0)" />
    <rect
       transform="matrix(0.98401114,0.17810695,-0.17810695,0.98401114,0,0)"
       y="377.52591"
       x="-316.99854"
       height="48.522621"
       width="48.522621"
       id="rect6735-6-7-4-0-28-3-6-1"
       style="fill:#000000;fill-opacity:1;stroke:none" />
    <rect
       style="fill:#000000;fill-opacity:1;stroke:none"
       id="rect6737-4-1-1-3-5-6-4-9"
       width="48.522621"
       height="48.522621"
       x="-249.69983"
       y="363.4097"
       transform="matrix(0.98401114,0.17810695,-0.17810695,0.98401114,0,0)" />
    <rect
       transform="matrix(0.98401114,0.17810695,-0.17810695,0.98401114,0,0)"
       y="349.29349"
       x="-182.40106"
       height="48.522621"
       width="48.522621"
       id="rect6739-7-1-9-6-14-5-4-7"
       style="fill:#000000;fill-opacity:1;stroke:none" />
    <rect
       style="fill:#000000;fill-opacity:1;stroke:none"
       id="rect6741-1-5-6-8-6-2-8-3"
       width="48.522621"
       height="48.522621"
       x="-115.05415"
       y="363.17728"
       transform="matrix(0.98401114,0.17810695,-0.17810695,0.98401114,0,0)" />
    <rect
       transform="matrix(0.98401114,0.17810695,-0.17810695,0.98401114,0,0)"
       y="377.06107"
       x="-47.707466"
       height="48.522621"
       width="48.522621"
       id="rect6743-3-2-7-5-8-8-8-5"
       style="fill:#000000;fill-opacity:1;stroke:none" />
    <rect
       style="fill:#000000;fill-opacity:1;stroke:none"
       id="rect6749-2-7-1-4-5-1-6-2"
       width="48.522621"
       height="48.522621"
       x="-316.88232"
       y="444.84866"
       transform="matrix(0.98401114,0.17810695,-0.17810695,0.98401114,0,0)" />
    <rect
       transform="matrix(0.98401114,0.17810695,-0.17810695,0.98401114,0,0)"
       y="430.73245"
       x="-249.58374"
       height="48.522621"
       width="48.522621"
       id="rect6751-1-6-2-9-4-5-8-7"
       style="fill:#000000;fill-opacity:1;stroke:none" />
    <rect
       style="fill:#000000;fill-opacity:1;stroke:none"
       id="rect6753-6-1-6-9-7-4-8-4"
       width="48.522621"
       height="48.522621"
       x="-182.28479"
       y="416.61624"
       transform="matrix(0.98401114,0.17810695,-0.17810695,0.98401114,0,0)" />
    <rect
       transform="matrix(0.98401114,0.17810695,-0.17810695,0.98401114,0,0)"
       y="430.50003"
       x="-114.93793"
       height="48.522621"
       width="48.522621"
       id="rect6755-38-4-0-3-6-48-7-9"
       style="fill:#000000;fill-opacity:1;stroke:none" />
    <rect
       style="fill:#000000;fill-opacity:1;stroke:none"
       id="rect6757-3-2-2-0-07-6-1-1"
       width="48.522621"
       height="48.522621"
       x="-47.591133"
       y="444.38382"
       transform="matrix(0.98401114,0.17810695,-0.17810695,0.98401114,0,0)" />
    <rect
       style="fill:#000000;fill-opacity:1;stroke:none"
       id="rect6761-8-2-4-0-0-40-7-4"
       width="48.522621"
       height="48.522621"
       x="-188.94232"
       y="497.431"
       transform="matrix(0.99982094,0.018923,-0.018923,0.99982094,0,0)" />
    <rect
       transform="matrix(0.98401114,0.17810695,-0.17810695,0.98401114,0,0)"
       y="514.71637"
       x="-30.614935"
       height="48.522621"
       width="48.522621"
       id="rect6763-60-2-1-7-23-38-9-8"
       style="fill:#000000;fill-opacity:1;stroke:none" />
    <rect
       style="fill:#000000;fill-opacity:1;stroke:none"
       id="rect6761-8-2-6-0-0-9-5-1-0"
       width="48.522621"
       height="48.522621"
       x="-259.806"
       y="496.99789"
       transform="matrix(0.99982094,0.018923,-0.018923,0.99982094,0,0)" />
    <rect
       style="fill:#000000;fill-opacity:1;stroke:none"
       id="rect5184-2-9-1-3-0-3-0-3-4-2"
       width="48.522621"
       height="48.522621"
       x="-384.4375"
       y="261.71121"
       transform="matrix(0.98401114,0.17810695,-0.17810695,0.98401114,0,0)" />
    <rect
       transform="matrix(0.98401114,0.17810695,-0.17810695,0.98401114,0,0)"
       y="329.03397"
       x="-384.32141"
       height="48.522621"
       width="48.522621"
       id="rect6719-6-8-3-8-4-3-2-3-1"
       style="fill:#000000;fill-opacity:1;stroke:none" />
    <rect
       style="fill:#000000;fill-opacity:1;stroke:none"
       id="rect6733-2-1-6-5-8-8-2-0-1"
       width="48.522621"
       height="48.522621"
       x="-384.2052"
       y="396.35843"
       transform="matrix(0.98401114,0.17810695,-0.17810695,0.98401114,0,0)" />
    <rect
       style="fill:#000000"
       id="rect5669"
       width="460.62991"
       height="460.62991"
       x="-15.000022"
       y="178.07614" />
    <g
       id="g6038"
       transform="matrix(-1,0,0,1,1876.7971,-3943.9238)">
      <rect
         style="fill:#000000;fill-opacity:1;stroke:none"
         id="rect6707-4-7-2-1-62-6-1-4-3"
         width="48.522621"
         height="48.522621"
         x="1805.696"
         y="3868.8354"
         transform="matrix(0.98401114,0.17810695,-0.17810695,0.98401114,0,0)" />
      <rect
         transform="matrix(0.98401114,0.17810695,-0.17810695,0.98401114,0,0)"
         y="3854.7185"
         x="1872.9948"
         height="48.522621"
         width="48.522621"
         id="rect6709-46-4-1-3-4-5-5-5-4"
         style="fill:#000000;fill-opacity:1;stroke:none" />
      <rect
         style="fill:#000000;fill-opacity:1;stroke:none"
         id="rect6711-9-0-5-8-8-6-3-5-5"
         width="48.522621"
         height="48.522621"
         x="1940.2935"
         y="3840.6018"
         transform="matrix(0.98401114,0.17810695,-0.17810695,0.98401114,0,0)" />
      <rect
         transform="matrix(0.98401114,0.17810695,-0.17810695,0.98401114,0,0)"
         y="3854.4861"
         x="2007.6404"
         height="48.522621"
         width="48.522621"
         id="rect6713-8-9-3-1-0-8-3-3-5"
         style="fill:#000000;fill-opacity:1;stroke:none" />
      <rect
         style="fill:#000000;fill-opacity:1;stroke:none"
         id="rect6715-5-4-6-9-8-8-4-1-1"
         width="48.522621"
         height="48.522621"
         x="2074.9873"
         y="3868.3706"
         transform="matrix(0.98401114,0.17810695,-0.17810695,0.98401114,0,0)" />
      <rect
         transform="matrix(0.98401114,0.17810695,-0.17810695,0.98401114,0,0)"
         y="3936.1582"
         x="1805.8123"
         height="48.522621"
         width="48.522621"
         id="rect6721-6-8-3-2-7-96-4-1-8"
         style="fill:#000000;fill-opacity:1;stroke:none" />
      <rect
         style="fill:#000000;fill-opacity:1;stroke:none"
         id="rect6723-0-2-4-7-1-82-7-6-9"
         width="48.522621"
         height="48.522621"
         x="1873.111"
         y="3922.042"
         transform="matrix(0.98401114,0.17810695,-0.17810695,0.98401114,0,0)" />
      <rect
         transform="matrix(0.98401114,0.17810695,-0.17810695,0.98401114,0,0)"
         y="3907.9258"
         x="1940.4095"
         height="48.522621"
         width="48.522621"
         id="rect6725-7-4-6-9-4-1-6-3-2"
         style="fill:#000000;fill-opacity:1;stroke:none" />
      <rect
         style="fill:#000000;fill-opacity:1;stroke:none"
         id="rect6727-2-5-0-1-2-0-9-6-6"
         width="48.522621"
         height="48.522621"
         x="2007.7566"
         y="3921.8096"
         transform="matrix(0.98401114,0.17810695,-0.17810695,0.98401114,0,0)" />
      <rect
         transform="matrix(0.98401114,0.17810695,-0.17810695,0.98401114,0,0)"
         y="3935.6934"
         x="2075.1033"
         height="48.522621"
         width="48.522621"
         id="rect6729-7-5-6-6-20-5-9-8-8"
         style="fill:#000000;fill-opacity:1;stroke:none" />
      <rect
         style="fill:#000000;fill-opacity:1;stroke:none"
         id="rect6735-6-7-4-0-28-3-6-1-7"
         width="48.522621"
         height="48.522621"
         x="1805.9283"
         y="4003.4812"
         transform="matrix(0.98401114,0.17810695,-0.17810695,0.98401114,0,0)" />
      <rect
         transform="matrix(0.98401114,0.17810695,-0.17810695,0.98401114,0,0)"
         y="3989.365"
         x="1873.2272"
         height="48.522621"
         width="48.522621"
         id="rect6737-4-1-1-3-5-6-4-9-5"
         style="fill:#000000;fill-opacity:1;stroke:none" />
      <rect
         style="fill:#000000;fill-opacity:1;stroke:none"
         id="rect6739-7-1-9-6-14-5-4-7-0"
         width="48.522621"
         height="48.522621"
         x="1940.5258"
         y="3975.2488"
         transform="matrix(0.98401114,0.17810695,-0.17810695,0.98401114,0,0)" />
      <rect
         transform="matrix(0.98401114,0.17810695,-0.17810695,0.98401114,0,0)"
         y="3989.1326"
         x="2007.8728"
         height="48.522621"
         width="48.522621"
         id="rect6741-1-5-6-8-6-2-8-3-8"
         style="fill:#000000;fill-opacity:1;stroke:none" />
      <rect
         style="fill:#000000;fill-opacity:1;stroke:none"
         id="rect6743-3-2-7-5-8-8-8-5-6"
         width="48.522621"
         height="48.522621"
         x="2075.2195"
         y="4003.0164"
         transform="matrix(0.98401114,0.17810695,-0.17810695,0.98401114,0,0)" />
      <rect
         transform="matrix(0.98401114,0.17810695,-0.17810695,0.98401114,0,0)"
         y="4070.804"
         x="1806.0446"
         height="48.522621"
         width="48.522621"
         id="rect6749-2-7-1-4-5-1-6-2-0"
         style="fill:#000000;fill-opacity:1;stroke:none" />
      <rect
         style="fill:#000000;fill-opacity:1;stroke:none"
         id="rect6751-1-6-2-9-4-5-8-7-1"
         width="48.522621"
         height="48.522621"
         x="1873.3433"
         y="4056.6877"
         transform="matrix(0.98401114,0.17810695,-0.17810695,0.98401114,0,0)" />
      <rect
         transform="matrix(0.98401114,0.17810695,-0.17810695,0.98401114,0,0)"
         y="4042.5715"
         x="1940.6421"
         height="48.522621"
         width="48.522621"
         id="rect6753-6-1-6-9-7-4-8-4-5"
         style="fill:#000000;fill-opacity:1;stroke:none" />
      <rect
         style="fill:#000000;fill-opacity:1;stroke:none"
         id="rect6755-38-4-0-3-6-48-7-9-3"
         width="48.522621"
         height="48.522621"
         x="2007.989"
         y="4056.4553"
         transform="matrix(0.98401114,0.17810695,-0.17810695,0.98401114,0,0)" />
      <rect
         transform="matrix(0.98401114,0.17810695,-0.17810695,0.98401114,0,0)"
         y="4070.3391"
         x="2075.3359"
         height="48.522621"
         width="48.522621"
         id="rect6757-3-2-2-0-07-6-1-1-2"
         style="fill:#000000;fill-opacity:1;stroke:none" />
      <rect
         transform="matrix(0.99982094,0.018923,-0.018923,0.99982094,0,0)"
         y="4415.5044"
         x="1328.6467"
         height="48.522621"
         width="48.522621"
         id="rect6761-8-2-4-0-0-40-7-4-2"
         style="fill:#000000;fill-opacity:1;stroke:none" />
      <rect
         style="fill:#000000;fill-opacity:1;stroke:none"
         id="rect6763-60-2-1-7-23-38-9-8-4"
         width="48.522621"
         height="48.522621"
         x="2092.312"
         y="4140.6719"
         transform="matrix(0.98401114,0.17810695,-0.17810695,0.98401114,0,0)" />
      <rect
         transform="matrix(0.99982094,0.018923,-0.018923,0.99982094,0,0)"
         y="4415.0713"
         x="1257.7831"
         height="48.522621"
         width="48.522621"
         id="rect6761-8-2-6-0-0-9-5-1-0-8"
         style="fill:#000000;fill-opacity:1;stroke:none" />
      <rect
         transform="matrix(0.98401114,0.17810695,-0.17810695,0.98401114,0,0)"
         y="3887.668"
         x="1738.4895"
         height="48.522621"
         width="48.522621"
         id="rect5184-2-9-1-3-0-3-0-3-4-2-9"
         style="fill:#000000;fill-opacity:1;stroke:none" />
      <rect
         style="fill:#000000;fill-opacity:1;stroke:none"
         id="rect6719-6-8-3-8-4-3-2-3-1-3"
         width="48.522621"
         height="48.522621"
         x="1738.6056"
         y="3954.9907"
         transform="matrix(0.98401114,0.17810695,-0.17810695,0.98401114,0,0)" />
      <rect
         transform="matrix(0.98401114,0.17810695,-0.17810695,0.98401114,0,0)"
         y="4022.3137"
         x="1738.7218"
         height="48.522621"
         width="48.522621"
         id="rect6733-2-1-6-5-8-8-2-0-1-4"
         style="fill:#000000;fill-opacity:1;stroke:none" />
    </g>
    <path
       style="fill:none;stroke:#000000;stroke-width:1px;stroke-linecap:butt;stroke-linejoin:miter;stroke-opacity:1"
       d="m -471.42855,155.21933 0,240 300,279.2857 773.5714,0.7143 309.2857,-280.0001 -0.7143,-239.2856 z"
       id="path6072"
       inkscape:connector-curvature="0"
       sodipodi:nodetypes="ccccccc" />
  </g>
</svg>
